<svg width="994" height="740" viewBox="0 0 994 740" fill="none" xmlns="http://www.w3.org/2000/svg">
<path d="M994 650.313H0V650.811H994V650.313Z" fill="#EBEBEB"/>
<path d="M894.403 682.268H851.303V682.765H894.403V682.268Z" fill="#EBEBEB"/>
<path d="M685.205 671.98H617.395V672.478H685.205V671.98Z" fill="#EBEBEB"/>
<path d="M876.946 663.838H788.42V664.335H876.946V663.838Z" fill="#EBEBEB"/>
<path d="M343.965 673.847H321.818V674.345H343.965V673.847Z" fill="#EBEBEB"/>
<path d="M304.104 673.847H227.785V674.345H304.104V673.847Z" fill="#EBEBEB"/>
<path d="M186.892 665.467H131.824V665.964H186.892V665.467Z" fill="#EBEBEB"/>
<path d="M471.177 561.738H87.3144C81.0522 561.738 75.9629 556.654 75.9629 550.398V11.34C75.9629 5.08414 81.0522 0 87.3144 0H471.197C477.459 0 482.549 5.08414 482.549 11.34V550.398C482.529 556.654 477.439 561.738 471.177 561.738ZM87.3144 0.496498C81.3305 0.496498 76.4599 5.36218 76.4599 11.34V550.398C76.4599 556.376 81.3305 561.241 87.3144 561.241H471.197C477.181 561.241 482.052 556.376 482.052 550.398V11.34C482.052 5.36218 477.181 0.496498 471.197 0.496498H87.3144Z" fill="#EBEBEB"/>
<path d="M901.18 561.738H517.297C511.035 561.738 505.945 556.654 505.945 550.398V11.34C505.945 5.08414 511.035 0 517.297 0H901.18C907.442 0 912.531 5.08414 912.531 11.34V550.398C912.531 556.654 907.442 561.738 901.18 561.738ZM517.297 0.496498C511.313 0.496498 506.442 5.36218 506.442 11.34V550.398C506.442 556.376 511.313 561.241 517.297 561.241H901.18C907.163 561.241 912.034 556.376 912.034 550.398V11.34C912.034 5.36218 907.163 0.496498 901.18 0.496498H517.297Z" fill="#EBEBEB"/>
<path d="M429.546 289.816L430.44 263.72L414.397 258.477C413.741 249.56 412.25 240.762 410.123 232.262L423.721 222.252L414.477 197.745L397.658 199.096C393.642 191.171 388.931 183.625 383.663 176.555L392.37 162.037L374.458 142.952L359.429 150.637C352.65 144.898 345.513 139.675 337.879 135.087L340.304 118.425L316.448 107.601L305.514 120.391C297.185 117.69 288.557 115.664 279.631 114.333L275.575 97.9887L249.373 97.095L244.204 113.122C235.199 113.857 226.472 115.267 217.963 117.392L207.864 103.887L183.332 113.043L184.684 129.844C176.752 133.915 169.197 138.622 162.12 143.885L147.647 135.186L128.463 153.001L136.157 168.094C130.411 174.787 125.183 181.996 120.65 189.622L103.971 187.12L93.0767 210.952L105.959 221.875C103.255 230.196 101.168 238.875 99.8956 247.733L83.4747 251.863L82.5801 277.959L98.6829 283.202C99.3389 292.179 100.83 300.917 102.957 309.398L89.3592 319.407L98.6034 343.914L115.422 342.564C119.438 350.488 124.149 358.035 129.417 365.105L120.71 379.622L138.622 398.708L153.651 391.022C160.351 396.761 167.567 401.985 175.201 406.592L172.696 423.255L196.552 434.078L207.546 421.288C215.875 423.989 224.503 426.015 233.43 427.346L237.485 443.69L263.687 444.584L268.856 428.557C277.841 427.822 286.589 426.412 295.077 424.287L305.097 437.792L329.629 428.637L328.337 411.835C336.269 407.764 343.744 403.057 350.9 397.774L365.373 406.473L384.557 388.659L376.864 373.565C382.609 366.872 387.837 359.663 392.37 352.037L409.049 354.539L419.944 330.707L407.061 319.784C409.765 311.463 411.853 302.844 413.125 293.927L429.546 289.816ZM253.031 374.359C195.817 372.393 151.027 324.471 152.975 267.314C154.943 210.098 202.914 165.334 260.128 167.3C317.343 169.266 362.133 217.188 360.184 274.404C358.216 331.561 310.226 376.326 253.031 374.359Z" fill="#EBEBEB"/>
<path d="M876.63 203.505L883.21 197.368L880.586 192.185C882.594 189.841 884.383 187.339 885.934 184.757L891.699 185.631L895.437 177.409L891.003 173.636C891.958 170.736 892.653 167.737 893.091 164.738L898.757 163.328L899.055 154.312L893.508 152.524C893.27 149.466 892.793 146.467 892.057 143.488L896.729 140.013L893.548 131.572L887.763 132.029C886.391 129.348 884.781 126.746 882.932 124.244L885.934 119.279L879.771 112.685L874.602 115.327C872.237 113.321 869.752 111.534 867.167 109.985L868.002 104.225L859.792 100.472L856.015 104.9C853.092 103.967 850.09 103.272 847.088 102.835L845.677 97.1947L836.651 96.877L834.842 102.438C831.801 102.676 828.779 103.153 825.797 103.907L822.338 99.2403L813.869 102.398L814.346 108.197C811.662 109.567 809.018 111.176 806.553 113.023L801.543 110.024L794.963 116.161L797.607 121.364C795.579 123.708 793.81 126.21 792.259 128.792L786.494 127.918L782.757 136.14L787.19 139.913C786.236 142.813 785.54 145.812 785.103 148.811L779.437 150.221L779.139 159.237L784.685 161.025C784.924 164.063 785.401 167.082 786.136 170.061L781.465 173.516L784.645 181.957L790.45 181.52C791.822 184.201 793.432 186.803 795.281 189.305L792.279 194.27L798.442 200.864L803.611 198.222C805.977 200.228 808.462 202.015 811.046 203.564L810.191 209.304L818.402 213.058L822.179 208.649C825.101 209.582 828.083 210.257 831.105 210.714L832.516 216.354L841.542 216.672L843.351 211.111C846.393 210.873 849.414 210.396 852.396 209.642L855.856 214.309L864.324 211.151L863.847 205.352C866.531 203.982 869.155 202.393 871.64 200.526L876.63 203.505ZM829.674 165.513C824.823 160.329 825.101 152.187 830.29 147.361C835.479 142.515 843.629 142.793 848.48 147.977C853.331 153.16 853.053 161.303 847.844 166.148C842.655 170.974 834.524 170.696 829.674 165.513Z" fill="#EBEBEB"/>
<path d="M636.137 471.455L615.581 457.275C615.581 457.255 615.581 457.235 615.561 457.235C613.533 449.768 610.73 442.598 607.291 435.846L612.559 415.192L582.739 383.297L561.746 387.13C555.245 383.257 548.267 379.96 540.971 377.438C540.951 377.438 540.931 377.438 540.911 377.418L528.148 355.949L484.492 354.46L470.298 374.995C470.278 374.995 470.238 375.015 470.218 375.015C462.763 377.041 455.567 379.841 448.827 383.257L428.172 377.994L396.245 407.784L400.081 428.716C400.081 428.716 400.082 428.736 400.062 428.736C396.106 435.31 392.885 442.281 390.36 449.569L368.87 462.319L367.379 505.951L387.955 520.151C389.982 527.658 392.706 534.828 396.205 541.64L390.957 562.234L420.777 594.13L441.631 590.316C448.211 594.209 455.209 597.486 462.604 600.028H462.624L475.367 621.457L519.024 622.946L533.218 602.431C540.772 600.405 547.969 597.605 554.788 594.169L575.363 599.412L607.291 569.622L603.454 548.69C607.41 542.116 610.631 535.146 613.155 527.837L634.646 515.087L636.137 471.455ZM500.058 537.767C472.922 536.834 451.71 514.074 452.644 487.025C453.579 459.916 476.282 438.726 503.438 439.659C530.574 440.592 551.786 463.273 550.851 490.401C549.917 517.431 527.194 538.681 500.058 537.767Z" fill="#EBEBEB"/>
<path d="M682.975 347.549C682.935 347.549 682.876 347.549 682.836 347.549L648.404 346.377C646.972 346.337 645.66 345.563 644.945 344.332L635.68 328.742C630.75 326.954 625.899 324.71 621.208 322.029L606.278 324.75C604.866 325.008 603.435 324.531 602.461 323.479L578.943 298.336C577.969 297.283 577.591 295.814 577.949 294.443L581.706 279.727C579.42 275.06 577.512 270.095 576.021 264.892L561.051 254.565C559.878 253.75 559.182 252.4 559.242 250.97L560.415 216.573C560.455 215.143 561.23 213.832 562.462 213.117L578.108 203.842C579.957 198.778 582.203 193.932 584.808 189.444L582.064 174.489C581.806 173.079 582.283 171.65 583.336 170.676L608.524 147.182C609.578 146.209 611.049 145.832 612.421 146.189L627.192 149.962C631.983 147.639 636.933 145.732 642.002 144.263L652.34 129.308C653.155 128.136 654.487 127.402 655.938 127.501L690.37 128.673C691.802 128.712 693.114 129.487 693.829 130.718L703.113 146.348C708.044 148.155 712.874 150.399 717.487 153.041L732.496 150.3C733.907 150.042 735.339 150.519 736.313 151.571L759.831 176.734C760.805 177.786 761.183 179.256 760.825 180.626L757.048 195.402C759.374 200.188 761.282 205.133 762.753 210.198L777.703 220.525C778.876 221.339 779.552 222.69 779.512 224.119L778.339 258.517C778.3 259.947 777.524 261.257 776.292 261.972L760.646 271.247C758.797 276.311 756.551 281.137 753.947 285.626L756.69 300.6C756.948 302.01 756.471 303.44 755.418 304.413L730.25 327.888C729.196 328.861 727.745 329.238 726.353 328.881L711.642 325.127C706.791 327.47 701.801 329.377 696.752 330.827L686.434 345.761C685.639 346.874 684.347 347.549 682.975 347.549ZM650.988 338.076L680.828 339.089L690.708 324.789C691.265 323.975 692.12 323.379 693.074 323.121C698.561 321.652 704.028 319.566 709.276 316.905C709.276 316.905 709.296 316.905 709.296 316.885C710.171 316.448 711.205 316.329 712.199 316.587L726.194 320.142L748.022 299.786L745.418 285.546C745.239 284.533 745.418 283.501 745.955 282.627C748.837 277.86 751.283 272.617 753.211 267.076C753.529 266.083 754.205 265.269 755.08 264.753L770.029 255.875L771.043 226.066L756.73 216.195C755.974 215.679 755.418 214.924 755.139 214.07C755.1 213.971 755.08 213.852 755.04 213.733C753.549 208.251 751.462 202.869 748.857 197.745C748.4 196.832 748.281 195.799 748.539 194.806L752.118 180.745L731.741 158.939L717.447 161.561C716.453 161.739 715.419 161.561 714.544 161.044C709.574 158.085 704.326 155.642 698.939 153.756C698.64 153.656 698.322 153.517 698.064 153.339C697.487 152.981 697.01 152.485 696.652 151.909L687.766 136.954L657.926 135.941L648.046 150.241C647.449 151.094 646.575 151.69 645.581 151.929C640.054 153.438 634.686 155.503 629.577 158.105C628.663 158.562 627.629 158.681 626.635 158.423L612.56 154.848L590.732 175.204L593.336 189.444C593.495 190.338 593.376 191.271 592.958 192.066C592.899 192.185 592.839 192.284 592.76 192.403C589.877 197.189 587.432 202.452 585.503 208.013C585.185 208.946 584.529 209.741 583.674 210.237L568.705 219.115L567.691 248.924L582.024 258.815C582.839 259.371 583.436 260.205 583.694 261.178C585.245 266.898 587.312 272.319 589.877 277.304C590.016 277.582 590.135 277.9 590.215 278.198C590.374 278.873 590.374 279.568 590.215 280.244L586.636 294.245L607.013 316.051L621.208 313.449C622.202 313.271 623.236 313.449 624.09 313.966C629.14 316.945 634.428 319.407 639.776 321.234C640.75 321.532 641.585 322.188 642.102 323.081L650.988 338.076ZM669.417 300.401C668.681 300.401 667.946 300.382 667.21 300.362C632.52 299.17 605.284 270.016 606.457 235.38C607.65 200.724 636.873 173.516 671.504 174.688C706.195 175.88 733.43 205.034 732.257 239.67C731.681 256.432 724.604 271.982 712.318 283.441C700.569 294.443 685.4 300.401 669.417 300.401ZM669.337 183.049C640.114 183.049 615.86 206.285 614.846 235.678C613.812 265.706 637.43 290.968 667.488 292.001C682.06 292.497 695.937 287.294 706.592 277.344C717.228 267.414 723.371 253.929 723.868 239.412C724.902 209.383 701.284 184.122 671.226 183.089C670.59 183.069 669.973 183.049 669.337 183.049Z" fill="#EBEBEB"/>
<path d="M762.278 100.034L748.024 96.2211L744.188 81.9617L749.774 76.4009L755.658 88.575L767.865 94.4536L762.278 100.034Z" fill="#E0E0E0"/>
<path d="M763.155 90.5017C765.759 87.9001 765.759 83.6699 763.155 81.0881C760.551 78.4865 756.336 78.5063 753.752 81.108L760.849 70.4829L770.372 75.289L772.459 85.2785L763.155 90.5017Z" fill="#E0E0E0"/>
<path d="M748.641 77.5132L759.098 67.0669L773.352 70.8999L777.188 85.1394L766.731 95.5857L752.478 91.7528L748.641 77.5132ZM767.626 86.053C770.23 83.4513 770.23 79.2212 767.626 76.6394C765.022 74.0377 760.807 74.0576 758.223 76.6592C755.619 79.2609 755.619 83.4513 758.223 86.0331C760.807 88.6348 765.022 88.6546 767.626 86.053Z" fill="#F0F0F0"/>
<path d="M179.355 480.134L187.009 478.068L189.057 470.442L186.075 467.443L182.914 473.977L176.354 477.135L179.355 480.134Z" fill="#E0E0E0"/>
<path d="M178.876 475.01C177.485 473.62 177.485 471.356 178.876 469.946C180.268 468.555 182.534 468.555 183.926 469.965L180.129 464.266L175.02 466.847L173.906 472.21L178.876 475.01Z" fill="#E0E0E0"/>
<path d="M186.671 468.039L181.065 462.439L173.411 464.484L171.363 472.13L176.969 477.731L184.623 475.685L186.671 468.039ZM176.492 472.627C175.101 471.237 175.101 468.973 176.492 467.563C177.884 466.172 180.15 466.172 181.542 467.582C182.933 468.993 182.933 471.217 181.542 472.627C180.15 473.997 177.884 474.017 176.492 472.627Z" fill="#F0F0F0"/>
<path d="M151.801 60.9894L158.143 67.3247C159.793 68.973 162.497 68.973 164.167 67.3247C165.817 65.6763 165.817 62.9753 164.167 61.327L157.825 54.9917C156.175 53.3433 153.471 53.3433 151.821 54.9917C150.151 56.64 150.151 59.341 151.801 60.9894Z" fill="#F0F0F0"/>
<path d="M147.331 45.2009C152.221 43.4533 157.529 45.7371 159.179 50.3248C160.829 54.9124 158.205 60.0562 153.314 61.8237C148.424 63.5714 143.116 61.2875 141.466 56.6998C139.816 52.0923 142.44 46.9486 147.331 45.2009Z" fill="#E0E0E0"/>
<path d="M140.413 55.6221L141.334 58.1826L160.23 51.4028L159.31 48.8423L140.413 55.6221Z" fill="#F0F0F0"/>
<path d="M496.998 740C709.878 740 882.452 729.935 882.452 717.518C882.452 705.102 709.878 695.037 496.998 695.037C284.118 695.037 111.545 705.102 111.545 717.518C111.545 729.935 284.118 740 496.998 740Z" fill="#F5F5F5"/>
<path d="M172.398 130.479C170.41 121.74 171.305 114.372 175.062 108.395C178.839 102.417 185.062 98.4447 193.769 96.4587C202.695 94.433 210.111 95.2671 216.035 98.9611C221.959 102.655 225.895 108.812 227.863 117.431C229.295 123.687 229.394 129.069 228.201 133.557C227.009 138.045 224.663 141.859 221.184 144.996C217.705 148.134 212.993 150.378 207.029 151.729C200.986 153.099 195.757 153.278 191.364 152.245C186.97 151.213 183.054 148.909 179.654 145.294C176.235 141.66 173.81 136.735 172.398 130.479ZM188.978 126.785C190.211 132.187 192.099 135.861 194.644 137.748C197.189 139.654 200.19 140.21 203.669 139.416C207.228 138.601 209.713 136.834 211.144 134.073C212.576 131.313 212.596 126.944 211.244 120.946C210.091 115.902 208.242 112.446 205.677 110.579C203.113 108.712 200.091 108.176 196.592 108.97C193.252 109.725 190.827 111.513 189.356 114.333C187.865 117.192 187.726 121.323 188.978 126.785Z" fill="#263238"/>
<path d="M235.755 123.925C234.403 118.007 235.298 112.665 238.419 107.918C241.54 103.172 246.51 100.034 253.309 98.4848C261.082 96.7173 267.484 97.6308 272.474 101.245C276.489 104.145 279.113 108.256 280.326 113.578C281.678 119.556 280.823 124.899 277.722 129.605C274.621 134.312 269.571 137.47 262.573 139.059C256.331 140.469 250.924 140.052 246.351 137.748C240.745 134.888 237.206 130.281 235.755 123.925ZM250.685 120.49C251.48 123.945 252.753 126.348 254.542 127.679C256.311 129.01 258.279 129.446 260.387 128.97C262.534 128.473 264.104 127.262 265.118 125.316C266.132 123.369 266.211 120.589 265.396 116.994C264.621 113.638 263.369 111.275 261.599 109.964C259.83 108.633 257.921 108.196 255.874 108.673C253.707 109.169 252.097 110.401 251.063 112.407C250.029 114.373 249.91 117.094 250.685 120.49Z" fill="#263238"/>
<path d="M295.376 146.208L283.189 92.626L297.125 89.4683L298.437 95.2078C299.809 92.3679 301.221 90.3223 302.632 89.1108C304.541 87.4823 306.807 86.3503 309.451 85.7545C314.64 84.5828 319.113 85.6552 322.85 88.9718C326.587 92.2884 329.132 96.8761 330.464 102.735C331.935 109.189 331.498 114.472 329.192 118.563C326.866 122.674 323.347 125.256 318.616 126.328C316.329 126.845 314.143 126.924 312.075 126.587C310.008 126.229 308.059 125.454 306.21 124.263L310.425 142.792L295.376 146.208ZM302.553 108.752C303.248 111.831 304.421 113.956 306.051 115.147C307.682 116.339 309.491 116.716 311.459 116.259C313.188 115.862 314.481 114.829 315.335 113.141C316.19 111.453 316.21 108.891 315.435 105.495C314.719 102.357 313.586 100.193 312.035 98.9812C310.485 97.7896 308.835 97.3924 307.065 97.7896C305.157 98.2265 303.745 99.3188 302.811 101.106C301.877 102.854 301.797 105.416 302.553 108.752Z" fill="#263238"/>
<path d="M336.828 109.924L351.28 105.178C352.294 106.786 353.427 107.859 354.7 108.355C355.972 108.852 357.523 108.911 359.352 108.494C361.36 108.037 362.811 107.263 363.705 106.171C364.421 105.336 364.66 104.463 364.441 103.509C364.202 102.437 363.447 101.742 362.195 101.404C361.3 101.166 359.054 101.146 355.435 101.325C350.068 101.603 346.271 101.583 344.084 101.265C341.897 100.947 339.909 100.034 338.12 98.5245C336.331 97.0152 335.158 95.0887 334.641 92.7453C334.064 90.1833 334.303 87.82 335.376 85.6354C336.45 83.4508 338.18 81.6039 340.585 80.0945C342.991 78.5851 346.39 77.334 350.764 76.341C355.396 75.2884 358.895 74.8713 361.26 75.0699C363.626 75.2685 365.713 75.9636 367.522 77.0956C369.331 78.2475 371.021 79.9753 372.572 82.2989L358.775 86.8866C358.119 85.7347 357.304 84.9602 356.33 84.563C354.978 84.0466 353.487 83.987 351.817 84.3644C350.127 84.7417 348.974 85.3177 348.338 86.0922C347.702 86.8667 347.483 87.681 347.682 88.535C347.901 89.4882 348.557 90.084 349.63 90.3621C350.724 90.6203 352.931 90.5805 356.29 90.2231C361.36 89.667 365.236 89.6074 367.86 90.0443C370.504 90.5011 372.671 91.4941 374.381 93.063C376.091 94.632 377.184 96.5187 377.681 98.7231C378.198 100.967 378.019 103.291 377.144 105.714C376.27 108.137 374.52 110.301 371.896 112.228C369.272 114.134 365.435 115.664 360.425 116.815C353.328 118.424 348.04 118.563 344.581 117.233C341.122 115.882 338.537 113.459 336.828 109.924Z" fill="#263238"/>
<path d="M385.375 60.8105L401.696 60.7112L401.776 73.2229L398.774 98.3855L388.675 98.445L385.455 73.3222L385.375 60.8105ZM386.17 102.278L401.398 102.199L401.478 115.644L386.25 115.723L386.17 102.278Z" fill="#263238"/>
<path d="M255.817 231.626C255.697 231.626 255.578 231.606 255.459 231.566C246.513 228.111 241.165 224.714 238.382 220.663C236.354 221.06 234.108 220.802 231.961 219.789C229.873 218.796 227.865 217.068 226.434 214.586C225.082 215.619 223.432 215.897 221.603 215.341C219.576 214.705 217.488 213.017 215.739 210.554C214.625 211.349 213.492 211.468 212.657 211.408C206.753 210.932 198.741 199.175 198.165 186.643C198.145 186.087 198.562 185.63 199.119 185.61C199.656 185.571 200.133 186.007 200.153 186.564C200.69 198.46 208.323 209.065 212.816 209.422C213.552 209.502 214.148 209.263 214.665 208.866C211.961 204.14 210.57 197.387 212.637 190.178C214.347 184.22 215.858 181.877 217.667 182.314C221.086 183.168 220.649 196.156 218.82 204.735C218.403 206.682 217.806 208.072 217.13 209.065C218.701 211.388 220.55 212.938 222.18 213.454C223.631 213.911 224.705 213.533 225.5 212.759C223.929 208.906 223.611 203.683 225.738 196.99C228.522 188.192 229.655 187.954 230.331 187.815C230.808 187.715 231.285 187.874 231.603 188.252C233.432 190.317 231.245 203.981 228.939 210.733C228.641 211.607 228.263 212.381 227.826 213.037C229.058 215.46 230.887 217.108 232.776 218.002C234.307 218.737 235.877 218.995 237.289 218.856C237.11 218.478 236.951 218.101 236.811 217.704C235.241 213.434 235.996 208.509 239.157 202.65C241.265 198.758 242.974 196.95 244.545 196.95C245.022 196.95 245.877 197.129 246.513 198.261C248.242 201.459 246.99 212.004 243.571 217.227C242.756 218.459 241.642 219.392 240.35 220.008C243.014 223.503 248.064 226.581 256.155 229.719C256.672 229.918 256.93 230.494 256.731 231.01C256.592 231.387 256.214 231.626 255.817 231.626ZM244.585 198.916C244.585 198.916 243.451 198.916 240.946 203.584C238.064 208.906 237.348 213.295 238.7 217.009C238.859 217.466 239.058 217.903 239.296 218.339C240.35 217.883 241.265 217.148 241.921 216.155C244.704 211.905 246.036 203.166 245.002 199.751C244.803 199.036 244.585 198.916 244.585 198.916ZM230.311 190.555C229.794 191.529 228.939 193.495 227.647 197.566C225.937 202.948 225.937 207.258 226.891 210.574C226.951 210.415 227.011 210.237 227.07 210.078C229.416 203.246 230.549 193.832 230.311 190.555ZM217.23 184.3C216.892 184.617 215.937 185.868 214.546 190.694C212.717 197.069 213.85 202.888 215.997 207.079C216.415 206.225 216.693 205.232 216.892 204.298C218.939 194.527 218.343 185.71 217.23 184.3Z" fill="#263238"/>
<path d="M331.4 335.731C328.378 335.731 325.177 335.036 322.335 333.368C321.858 333.09 321.698 332.474 321.977 332.018C322.255 331.541 322.871 331.382 323.329 331.66C330.426 335.811 339.59 332.911 341.479 329.892C341.698 329.535 341.897 329.078 341.777 328.562C338.974 328.86 335.515 328.125 331.579 325.642C326.529 322.485 326.132 321.551 326.152 320.797C326.171 320.36 326.43 319.963 326.827 319.764C328.815 318.771 337.781 322.882 341.519 325.345C342.016 325.662 342.413 326.02 342.751 326.377C344.401 325.98 345.694 325.126 346.529 324.093C347.105 323.398 347.503 322.624 347.701 321.869C347.562 321.889 347.443 321.909 347.304 321.909C344.123 322.227 340.942 320.856 337.543 317.738C335.217 315.573 334.302 314.104 334.601 312.912C334.7 312.535 335.018 311.86 336.032 311.621C338.775 310.946 345.574 313.826 348.338 316.864C348.954 317.54 349.391 318.354 349.61 319.208C352.194 317.996 354.938 315.256 358.198 310.728C358.516 310.291 359.133 310.172 359.59 310.489C360.027 310.807 360.146 311.423 359.828 311.88C356.071 317.123 352.95 320.102 349.789 321.313C349.67 322.703 349.093 324.133 348.059 325.364C347.045 326.576 345.574 327.609 343.725 328.165C343.924 329.058 343.745 330.012 343.169 330.925C341.499 333.626 336.688 335.731 331.4 335.731ZM329.631 321.949C330.307 322.445 331.261 323.1 332.632 323.954C335.336 325.642 337.742 326.417 339.789 326.576C336.489 324.53 332.175 322.723 329.631 321.949ZM336.569 313.508C336.688 313.826 337.125 314.64 338.895 316.269C341.857 318.989 344.541 320.221 347.105 319.923C347.324 319.903 347.523 319.863 347.741 319.824C347.602 319.228 347.304 318.672 346.886 318.175C344.083 315.137 337.921 313.19 336.569 313.508Z" fill="#263238"/>
<path d="M357.721 333.01L326.748 338.631L298.618 185.292L238.859 196.136L141.467 368.917L151.924 425.935L276.85 403.255L285.398 449.886L345.157 439.042L336.609 392.411L367.582 386.791L357.721 333.01ZM200.968 361.45L252.576 270.948L266.969 349.474L200.968 361.45Z" fill="#2BA0EE"/>
<path d="M607.194 174.846C606.041 164.261 603.914 154.847 600.832 146.605C597.751 138.383 593.119 130.3 586.936 122.396C580.753 114.492 572.324 107.62 561.689 101.801C551.033 95.9821 536.978 91.9307 519.503 89.6667C483.143 84.94 454.794 91.3746 434.457 109.01C414.119 126.646 400.74 160.408 394.299 210.316C391.675 230.613 391.039 249.38 392.351 266.599C393.663 283.837 396.844 297.68 401.853 308.166C408.712 322.902 418.413 334.659 430.978 343.457C443.522 352.255 460.718 358.074 482.566 360.913C521.531 365.978 550.397 358.51 569.183 338.492C587.97 318.473 600.435 284.651 606.578 237.007C609.301 215.797 609.5 195.063 607.194 174.846Z" fill="#2BA0EE"/>
<path d="M500.519 340.557C495.748 340.398 490.658 339.961 485.39 339.286C467.2 336.923 453.105 332.315 443.543 325.603C434.1 318.989 426.943 310.271 421.695 298.97L421.595 298.772C417.778 290.788 415.273 279.408 414.18 264.95C412.967 249.281 413.584 231.844 416.009 213.116C423.106 158.064 437.758 135.086 448.811 125.514C461.693 114.352 479.068 109.308 501.95 110.083C506.642 110.241 511.612 110.659 516.701 111.334C531.392 113.24 543.002 116.497 551.233 120.986C559.205 125.335 565.427 130.34 569.741 135.861C574.512 141.978 578.091 148.154 580.377 154.271C582.802 160.765 584.532 168.491 585.486 177.229C587.613 195.719 587.394 214.864 584.909 234.267C579.403 277.045 568.747 307.093 553.26 323.597C541.73 335.83 524.494 341.391 500.519 340.557Z" fill="#263238"/>
<path d="M539.422 175.442L539.681 167.915L535.049 166.405C534.85 163.843 534.432 161.301 533.816 158.859L537.732 155.979L535.068 148.909L530.218 149.306C529.065 147.022 527.713 144.857 526.182 142.812L528.687 138.621L523.518 133.12L519.184 135.344C517.236 133.696 515.169 132.187 512.982 130.856L513.678 126.05L506.799 122.932L503.658 126.626C501.253 125.851 498.768 125.276 496.203 124.878L495.03 120.172L487.476 119.913L485.985 124.541C483.4 124.759 480.876 125.156 478.43 125.772L475.528 121.879L468.451 124.521L468.848 129.367C466.562 130.538 464.395 131.889 462.347 133.418L458.173 130.916L452.646 136.059L454.873 140.409C453.223 142.335 451.712 144.42 450.4 146.625L445.589 145.91L442.448 152.782L446.165 155.919C445.39 158.322 444.774 160.825 444.416 163.367L439.684 164.558L439.426 172.085L444.078 173.595C444.277 176.176 444.694 178.699 445.31 181.141L441.394 184.021L444.058 191.091L448.909 190.694C450.062 192.978 451.413 195.143 452.944 197.188L450.439 201.379L455.608 206.88L459.942 204.656C461.87 206.304 463.958 207.813 466.145 209.144L465.429 213.95L472.307 217.068L475.468 213.374C477.874 214.149 480.359 214.725 482.923 215.122L484.096 219.829L491.651 220.087L493.142 215.459C495.726 215.241 498.251 214.844 500.696 214.228L503.579 218.121L510.656 215.479L510.278 210.633C512.564 209.462 514.731 208.111 516.779 206.582L520.954 209.084L526.48 203.941L524.254 199.591C525.904 197.665 527.415 195.58 528.727 193.375L533.538 194.09L536.679 187.219L532.961 184.081C533.737 181.678 534.333 179.195 534.711 176.633L539.422 175.442ZM488.529 199.81C472.029 199.254 459.127 185.431 459.684 168.947C460.24 152.444 474.077 139.555 490.577 140.111C507.077 140.667 519.98 154.489 519.423 170.993C518.846 187.477 505.03 200.366 488.529 199.81Z" fill="#2BA0EE"/>
<path opacity="0.3" d="M570.792 313.627L571.329 308.563L568.287 307.312C568.267 305.564 568.128 303.836 567.83 302.168L570.613 300.4L569.201 295.495L565.901 295.515C565.225 293.906 564.45 292.377 563.516 290.927L565.404 288.226L562.204 284.254L559.162 285.525C557.949 284.314 556.637 283.202 555.206 282.209L555.941 278.971L551.468 276.509L549.123 278.872C547.512 278.197 545.862 277.7 544.192 277.303L543.636 274.046L538.566 273.47L537.314 276.509C535.564 276.529 533.855 276.688 532.165 276.985L530.396 274.185L525.485 275.615L525.505 278.912C523.915 279.587 522.384 280.362 520.913 281.295L518.209 279.388L514.233 282.586L515.506 285.625C514.333 286.836 513.18 288.147 512.186 289.577L508.985 288.862L506.52 293.33L508.866 295.634C508.21 297.262 507.693 298.891 507.295 300.579L504.035 301.115L503.498 306.18L506.54 307.451C506.52 309.178 506.699 310.886 506.997 312.574L504.194 314.342L505.625 319.247H508.925C509.601 320.836 510.377 322.365 511.311 323.815L509.402 326.516L512.583 330.508L515.645 329.217C516.857 330.428 518.169 331.541 519.601 332.534L518.865 335.771L523.338 338.233L525.684 335.89C527.294 336.545 528.944 337.042 530.614 337.439L531.171 340.696L536.24 341.272L537.493 338.214C539.222 338.194 540.952 338.035 542.642 337.737L544.411 340.537L549.302 339.107V335.811C550.892 335.135 552.423 334.361 553.894 333.427L556.578 335.334L560.574 332.156L559.281 329.118C560.494 327.906 561.607 326.596 562.621 325.166L565.822 325.881L568.287 321.412L565.941 319.108C566.597 317.48 567.094 315.851 567.492 314.183L570.792 313.627ZM545.206 311.641C542.841 315.931 537.453 317.52 533.159 315.156C528.865 312.793 527.314 307.411 529.66 303.121C532.026 298.831 537.393 297.282 541.688 299.626C545.982 301.989 547.552 307.351 545.206 311.641Z" fill="#2BA0EE"/>
<path d="M598.963 227.792L593.038 223.701C593.038 223.701 593.038 223.701 593.038 223.681C592.462 221.536 591.647 219.451 590.653 217.525L592.164 211.567L583.575 202.372L577.532 203.484C575.663 202.372 573.655 201.418 571.548 200.684H571.528L567.85 194.487L555.266 194.05L551.171 199.969H551.151C549.004 200.544 546.937 201.359 544.988 202.352L539.024 200.842L529.82 209.422L530.933 215.459C529.8 217.346 528.866 219.372 528.13 221.457L521.928 225.131L521.49 237.702L527.414 241.794C527.991 243.958 528.786 246.024 529.8 247.99L528.289 253.928L536.877 263.123L542.881 262.031C544.77 263.143 546.797 264.096 548.925 264.831L552.602 271.008L565.186 271.444L569.282 265.526C571.449 264.95 573.536 264.136 575.504 263.143L581.428 264.652L590.633 256.073L589.52 250.035C590.653 248.149 591.587 246.123 592.323 244.018L598.525 240.344L598.963 227.792ZM559.739 246.898C551.907 246.639 545.803 240.066 546.062 232.281C546.32 224.456 552.881 218.359 560.694 218.617C568.526 218.875 574.629 225.429 574.371 233.234C574.113 241.039 567.552 247.176 559.739 246.898Z" fill="white"/>
<path d="M642.204 127.44L643.238 124.938C643.973 124.56 644.689 124.084 645.325 123.587L647.631 123.667L650.335 119.794L649.46 117.669C649.718 116.895 649.917 116.08 650.017 115.246L652.005 113.419L651.17 108.772L648.665 107.739C648.287 107.004 647.83 106.309 647.313 105.674L647.392 103.37L643.516 100.669L641.389 101.543C640.594 101.265 639.798 101.086 638.963 100.987L637.134 99.0007L632.482 99.8348L631.449 102.337C630.693 102.715 629.997 103.171 629.361 103.688L627.055 103.608L624.352 107.481L625.226 109.606C624.968 110.38 624.769 111.195 624.67 112.049L622.682 113.876L623.517 118.523L626.021 119.556C626.399 120.31 626.876 121.006 627.393 121.641L627.314 123.925L631.19 126.626L633.317 125.752C634.113 126.03 634.908 126.209 635.743 126.308L637.572 128.294L642.204 127.44ZM632.085 114.571C631.568 111.671 633.496 108.931 636.379 108.414C639.281 107.898 642.025 109.824 642.542 112.704C643.059 115.584 641.13 118.344 638.248 118.861C635.385 119.377 632.602 117.451 632.085 114.571Z" fill="#2BA0EE"/>
<path d="M587.671 114.273L586.16 113.002C588.804 109.884 592.542 105.932 598.108 103.012L599.023 104.78C593.078 107.858 589.281 112.347 587.671 114.273Z" fill="#2BA0EE"/>
<path d="M603.533 102.973L602.758 101.145C610.272 97.9282 618.125 96.677 626.097 97.4118L625.918 99.3978C618.264 98.663 610.75 99.8943 603.533 102.973Z" fill="#2BA0EE"/>
<path d="M599.777 116.716L598.127 115.604C602.202 109.606 610.274 104.403 617.749 102.913L618.126 104.859C611.148 106.25 603.594 111.115 599.777 116.716Z" fill="#2BA0EE"/>
<path d="M467.854 307.848C467.596 307.848 467.337 307.748 467.139 307.55L462.964 303.26C460.837 303.061 458.749 302.664 456.702 302.088L450.201 304.948C449.883 305.087 449.525 305.047 449.247 304.869L438.352 297.66C438.074 297.481 437.895 297.163 437.915 296.825L438.014 289.755C436.682 288.107 435.509 286.32 434.496 284.433L428.909 282.268C428.591 282.149 428.353 281.871 428.293 281.533L425.689 268.744C425.629 268.406 425.729 268.068 425.967 267.83L430.261 263.659C430.46 261.554 430.858 259.449 431.414 257.403L428.552 250.929C428.412 250.611 428.452 250.254 428.631 249.976L435.847 239.093C436.026 238.815 436.305 238.636 436.682 238.656L443.76 238.755C445.43 237.424 447.219 236.253 449.088 235.26L451.254 229.679C451.374 229.361 451.652 229.123 451.99 229.063L464.793 226.462C465.131 226.402 465.469 226.501 465.707 226.74L469.862 231.03C471.969 231.228 474.077 231.625 476.124 232.201L482.605 229.341C482.923 229.202 483.281 229.242 483.559 229.421L494.454 236.63C494.732 236.809 494.911 237.127 494.891 237.464L494.792 244.554C496.124 246.202 497.297 247.99 498.291 249.857L503.877 252.021C504.195 252.141 504.433 252.419 504.493 252.756L507.097 265.546C507.157 265.884 507.058 266.221 506.819 266.46L502.525 270.63C502.326 272.715 501.929 274.821 501.352 276.866L504.215 283.36C504.354 283.678 504.314 284.036 504.135 284.314L496.919 295.177C496.74 295.455 496.442 295.594 496.084 295.614L489.007 295.515C487.357 296.825 485.567 297.997 483.679 299.01L481.512 304.591C481.393 304.908 481.114 305.147 480.776 305.206L467.974 307.808C467.993 307.828 467.934 307.848 467.854 307.848ZM456.662 300.043C456.761 300.043 456.841 300.063 456.94 300.082C459.067 300.698 461.274 301.115 463.52 301.314C463.759 301.334 463.978 301.433 464.157 301.612L468.212 305.782L479.941 303.399L482.049 297.977C482.128 297.759 482.307 297.56 482.526 297.461C484.514 296.428 486.402 295.197 488.132 293.787C488.311 293.648 488.51 293.529 488.768 293.568L495.666 293.668L502.286 283.698L499.503 277.383C499.404 277.164 499.404 276.926 499.463 276.707C500.1 274.543 500.497 272.318 500.696 270.134C500.716 269.895 500.815 269.677 500.994 269.498L505.169 265.447L502.783 253.729L497.356 251.624C497.118 251.545 496.939 251.366 496.819 251.148C495.786 249.162 494.553 247.295 493.142 245.567C492.983 245.388 492.903 245.15 492.923 244.912L493.022 238.02L483.043 231.407L476.721 234.187C476.502 234.287 476.264 234.287 476.045 234.227C473.898 233.591 471.671 233.194 469.445 232.996C469.206 232.976 468.987 232.876 468.809 232.698L464.773 228.527L453.044 230.91L450.936 236.332C450.857 236.551 450.678 236.749 450.459 236.848C448.471 237.881 446.603 239.112 444.853 240.523C444.674 240.662 444.436 240.781 444.197 240.741L437.299 240.642L430.679 250.611L433.462 256.927C433.581 257.205 433.581 257.503 433.442 257.781C432.885 259.767 432.468 261.971 432.289 264.196C432.269 264.434 432.17 264.652 431.991 264.831L427.816 268.883L430.202 280.6L435.629 282.705C435.867 282.804 436.066 282.983 436.166 283.221C437.199 285.188 438.432 287.054 439.823 288.762C439.983 288.941 440.062 289.179 440.062 289.418L439.963 296.309L449.942 302.922L456.264 300.142C456.383 300.063 456.523 300.043 456.662 300.043ZM466.423 293.608C461.393 293.608 456.324 292.178 451.831 289.219C445.927 285.307 441.911 279.349 440.499 272.418C439.088 265.486 440.46 258.436 444.376 252.538C452.467 240.364 468.928 237.027 481.094 245.09C493.261 253.153 496.601 269.617 488.529 281.772C483.46 289.457 475.031 293.608 466.423 293.608ZM446.046 253.63C442.428 259.072 441.155 265.606 442.468 272.02C443.78 278.435 447.497 283.936 452.944 287.551C464.216 294.998 479.444 291.92 486.899 280.679C494.354 269.439 491.273 254.206 480.021 246.739C468.749 239.291 453.521 242.389 446.046 253.63Z" fill="white"/>
<path d="M846.549 350.924L815.357 346.714L835.992 192.183L775.796 184.061L629.777 318.373L622.104 375.828L747.924 392.789L741.642 439.777L801.839 447.9L808.121 400.911L839.312 405.122L846.549 350.924ZM688.662 329.634L765.717 259.469L755.141 338.591L688.662 329.634Z" fill="#2BA0EE"/>
<path d="M783.528 446.43C783.468 446.43 783.409 446.43 783.349 446.41C782.812 446.311 782.454 445.794 782.554 445.258L828.934 191.19C829.033 190.654 829.55 190.316 830.087 190.396C830.623 190.495 830.981 191.011 830.882 191.548L784.502 445.616C784.422 446.092 784.005 446.43 783.528 446.43Z" fill="#263238"/>
<path d="M824.68 195.46C824.64 196.354 823.905 197.069 822.99 197.029C822.095 196.989 821.38 196.255 821.42 195.341C821.459 194.427 822.195 193.732 823.109 193.772C824.004 193.812 824.72 194.567 824.68 195.46Z" fill="#263238"/>
<path d="M818.061 229.818C818.021 230.712 817.285 231.427 816.371 231.387C815.457 231.347 814.761 230.613 814.8 229.699C814.84 228.785 815.576 228.09 816.49 228.13C817.385 228.17 818.081 228.924 818.061 229.818Z" fill="#263238"/>
<path d="M811.44 264.176C811.4 265.07 810.664 265.784 809.75 265.745C808.835 265.705 808.14 264.97 808.179 264.057C808.219 263.143 808.955 262.448 809.869 262.488C810.764 262.527 811.46 263.282 811.44 264.176Z" fill="#263238"/>
<path d="M798.399 299.944C798.359 300.837 797.623 301.552 796.709 301.513C795.814 301.473 795.099 300.738 795.138 299.824C795.178 298.911 795.914 298.216 796.828 298.256C797.743 298.295 798.438 299.05 798.399 299.944Z" fill="#263238"/>
<path d="M798.182 332.891C798.142 333.785 797.407 334.5 796.492 334.46C795.597 334.42 794.882 333.685 794.922 332.772C794.961 331.858 795.697 331.163 796.611 331.203C797.506 331.243 798.222 331.997 798.182 332.891Z" fill="#263238"/>
<path d="M791.561 367.248C791.521 368.142 790.785 368.857 789.871 368.817C788.957 368.778 788.261 368.043 788.3 367.129C788.34 366.236 789.076 365.521 789.99 365.56C790.905 365.6 791.581 366.355 791.561 367.248Z" fill="#263238"/>
<path d="M784.942 401.606C784.902 402.5 784.166 403.215 783.252 403.175C782.357 403.136 781.642 402.401 781.681 401.487C781.721 400.594 782.457 399.879 783.371 399.918C784.266 399.958 784.961 400.713 784.942 401.606Z" fill="#263238"/>
<path d="M778.301 435.984C778.261 436.877 777.526 437.592 776.611 437.553C775.697 437.513 775.001 436.778 775.041 435.865C775.08 434.951 775.816 434.256 776.73 434.296C777.645 434.335 778.341 435.07 778.301 435.984Z" fill="#263238"/>
<path d="M796.768 300.877C796.31 300.877 795.893 300.559 795.793 300.082C795.674 299.546 796.012 299.01 796.549 298.911L801.479 297.858C802.016 297.759 802.553 298.076 802.652 298.613C802.771 299.149 802.433 299.685 801.897 299.784L796.966 300.837C796.907 300.877 796.847 300.877 796.768 300.877Z" fill="#263238"/>
<path d="M813.247 282.586C813.247 282.586 808.794 294.165 807.303 301.175C805.812 308.186 805.713 323.855 805.713 323.855" fill="#263238"/>
<path d="M805.713 324.868C805.156 324.868 804.719 324.411 804.719 323.875C804.719 323.239 804.818 308.026 806.329 300.976C807.82 293.966 812.134 282.705 812.313 282.228C812.512 281.712 813.088 281.474 813.605 281.652C814.122 281.851 814.38 282.427 814.182 282.943C814.142 283.062 809.748 294.522 808.277 301.393C806.826 308.225 806.707 323.736 806.707 323.875C806.707 324.411 806.269 324.868 805.713 324.868Z" fill="#263238"/>
<path d="M442.23 496.279C444.994 451.793 439.905 370.903 523.619 381.608C613.358 393.087 587.673 497.908 587.673 497.908L442.23 496.279Z" fill="#263238"/>
<path d="M500.004 469.548C520.184 469.548 536.544 453.205 536.544 433.045C536.544 412.885 520.184 396.542 500.004 396.542C479.824 396.542 463.465 412.885 463.465 433.045C463.465 453.205 479.824 469.548 500.004 469.548Z" fill="white"/>
<path d="M504.813 396.602C487.517 393.643 469.009 406.393 467.18 419.302L535.786 425.597C533.36 410.901 518.53 398.945 504.813 396.602Z" fill="#263238"/>
<path d="M527.976 432.132C527.479 441.664 522.29 449.152 516.346 448.854C510.402 448.556 506.008 440.572 506.505 431.019C507.002 421.487 512.191 414 518.135 414.297C524.039 414.615 528.453 422.599 527.976 432.132Z" fill="#263238"/>
<path d="M500.004 471.533C478.772 471.533 461.477 454.275 461.477 433.045C461.477 411.815 478.752 394.556 500.004 394.556C521.236 394.556 538.531 411.815 538.531 433.045C538.531 454.275 521.256 471.533 500.004 471.533ZM500.004 398.548C480.959 398.548 465.453 414.019 465.453 433.065C465.453 452.11 480.939 467.581 500.004 467.581C519.049 467.581 534.555 452.11 534.555 433.065C534.555 414.019 519.049 398.548 500.004 398.548Z" fill="#2BA0EE"/>
<path opacity="0.3" d="M577.495 495.167C577.415 495.167 577.336 495.167 577.256 495.147C576.72 495.028 576.402 494.492 576.521 493.956C576.58 493.697 582.922 466.767 576.342 439.539C576.203 439.003 576.541 438.467 577.077 438.348C577.594 438.229 578.151 438.546 578.27 439.083C584.97 466.787 578.509 494.154 578.449 494.432C578.35 494.849 577.932 495.167 577.495 495.167Z" fill="white"/>
<path opacity="0.3" d="M571.951 424.624C571.573 424.624 571.215 424.406 571.036 424.048C568.472 418.468 565.311 413.364 561.613 408.836C561.275 408.419 561.335 407.783 561.752 407.445C562.17 407.088 562.806 407.167 563.144 407.584C566.941 412.232 570.221 417.495 572.845 423.214C573.084 423.711 572.845 424.307 572.348 424.525C572.229 424.585 572.09 424.624 571.951 424.624Z" fill="white"/>
<path d="M255.917 704.967C255.679 704.967 255.42 704.967 255.182 704.967C249.695 704.808 245.361 700.24 245.52 694.759C245.679 689.278 250.192 685.048 255.738 685.107C255.798 685.107 255.857 685.107 255.937 685.107C261.682 685.107 275.499 678.136 304.404 632.617C305.955 630.175 308.5 628.526 311.362 628.109C314.225 627.692 317.147 628.546 319.314 630.453C354.979 661.513 392.771 680.857 393.149 681.056C398.039 683.538 399.987 689.516 397.502 694.402C395.017 699.287 389.034 701.253 384.143 698.771C382.632 698.016 349.612 681.135 314.961 652.795C290.747 689.159 272.775 704.967 255.917 704.967Z" fill="#263238"/>
<path d="M317.425 628.665C317.147 628.665 316.868 628.645 316.57 628.606C313.31 628.149 311.044 625.13 311.501 621.873C312.912 611.983 311.163 574.944 298.638 546.147C297.505 543.526 298.38 540.467 300.746 538.839C327.981 520.309 385.991 518.085 388.436 518.006C391.717 517.926 394.48 520.468 394.599 523.745C394.718 527.042 392.134 529.783 388.854 529.902C388.317 529.922 337.603 531.868 311.541 546.187C322.634 574.865 325.158 610.613 323.309 623.541C322.892 626.52 320.347 628.665 317.425 628.665Z" fill="#263238"/>
<path d="M327.444 620.96C323.468 611.606 305.596 612.678 295.099 620.682C289.493 624.971 281.899 637.841 281.104 642.508C280.308 647.175 283.549 651.405 289.095 650.928C295.954 650.332 305.357 640.383 305.357 640.383C299.095 646.519 307.166 650.849 319.233 641.971C325.913 637.046 331.877 631.426 327.444 620.96Z" fill="#2BA0EE"/>
<path d="M669.38 498.9C669.28 498.9 669.201 498.881 669.101 498.861C668.565 498.702 668.266 498.166 668.426 497.629C671.07 488.414 673.972 482.794 677.769 479.656C677.193 477.67 677.252 475.406 678.067 473.182C678.862 471.017 680.413 468.872 682.759 467.224C681.606 465.973 681.188 464.344 681.586 462.497C682.043 460.432 683.534 458.188 685.84 456.221C684.946 455.189 684.727 454.057 684.707 453.223C684.648 447.304 695.661 438.268 708.086 436.58C708.623 436.481 709.14 436.878 709.199 437.434C709.279 437.97 708.901 438.486 708.345 438.546C696.536 440.155 686.636 448.694 686.675 453.203C686.675 453.938 686.954 454.513 687.391 454.99C691.864 451.872 698.464 449.866 705.84 451.296C711.943 452.468 714.428 453.759 714.13 455.606C713.593 459.081 700.591 459.816 691.884 458.764C689.916 458.525 688.465 458.068 687.411 457.473C685.244 459.24 683.852 461.226 683.495 462.894C683.176 464.384 683.654 465.417 684.489 466.151C688.186 464.245 693.375 463.45 700.234 464.98C709.259 466.966 709.597 468.058 709.796 468.713C709.935 469.19 709.816 469.667 709.478 470.024C707.569 472.03 693.753 471.077 686.815 469.389C685.92 469.17 685.105 468.872 684.429 468.495C682.123 469.945 680.652 471.891 679.916 473.877C679.34 475.466 679.2 477.035 679.459 478.445C679.817 478.226 680.175 478.028 680.552 477.869C684.667 475.922 689.637 476.24 695.761 478.862C699.816 480.609 701.784 482.139 701.923 483.708C701.963 484.164 701.884 485.058 700.79 485.773C697.768 487.779 687.133 487.481 681.606 484.542C680.294 483.847 679.28 482.814 678.544 481.583C675.304 484.542 672.68 489.864 670.274 498.185C670.195 498.622 669.797 498.9 669.38 498.9ZM680.155 480.371C680.711 481.384 681.526 482.218 682.58 482.794C687.073 485.177 695.9 485.733 699.2 484.383C699.876 484.105 699.975 483.886 699.975 483.886C699.975 483.886 699.876 482.774 695.005 480.689C689.439 478.306 684.986 477.968 681.427 479.656C680.99 479.875 680.572 480.093 680.155 480.371ZM686.795 467.323C686.974 467.383 687.133 467.422 687.312 467.462C694.329 469.17 703.812 469.468 707.052 468.932C706.038 468.515 703.991 467.82 699.816 466.906C694.309 465.714 689.995 466.092 686.795 467.323ZM689.3 456.162C690.194 456.499 691.208 456.698 692.162 456.797C702.062 457.969 710.81 456.579 712.122 455.348C711.784 455.05 710.452 454.196 705.502 453.242C698.961 452.011 693.256 453.66 689.3 456.162Z" fill="#263238"/>
<path d="M410.583 701.651C411.895 701.234 411.458 699.963 409.987 699.963H383.069C331.818 694.541 296.015 701.809 318.578 703.517C341.142 705.225 316.988 704.868 300.507 711.104C284.027 717.34 423.068 718.909 435.731 711.104C447.381 703.915 392.413 707.47 410.583 701.651Z" fill="#263238"/>
<path d="M603.298 709.574L369.112 701.809L359.391 474.969L635.941 481.145L603.298 709.574Z" fill="#2BA0EE"/>
<path d="M442.23 705.225C441.713 705.225 441.276 704.828 441.236 704.312L422.47 476.479C422.43 475.923 422.827 475.446 423.384 475.406C423.941 475.367 424.418 475.764 424.458 476.32L443.224 704.153C443.264 704.709 442.866 705.186 442.31 705.225C442.29 705.225 442.27 705.225 442.23 705.225Z" fill="#263238"/>
<path d="M603.299 709.575L666.239 700.002L686.059 489.07L635.942 481.146L603.299 709.575Z" fill="#2BA0EE"/>
<path opacity="0.2" d="M603.299 709.575L666.239 700.002L686.059 489.07L635.942 481.146L603.299 709.575Z" fill="black"/>
<path d="M389.112 658.098L383.347 523.328C382.75 509.267 394.161 497.61 408.256 497.927L583.32 501.84C597.931 502.158 608.985 515.186 606.917 529.644L587.514 665.466C585.765 677.779 575.01 686.795 562.565 686.378L412.689 681.413C399.926 680.976 389.668 670.828 389.112 658.098Z" fill="#263238"/>
<path d="M408.04 539.276L435.116 540.13L434.897 547.1L417.94 546.564L417.781 551.748L433.506 552.244L433.287 558.917L417.562 558.421L417.363 564.855L434.818 565.411L434.579 572.819L407.006 571.945L408.04 539.276Z" fill="white"/>
<path d="M440.145 572.998L441.178 540.328L458.017 540.865C461.138 540.964 463.523 541.302 465.154 541.897C466.784 542.493 468.096 543.526 469.05 544.995C470.024 546.485 470.462 548.252 470.402 550.338C470.342 552.145 469.905 553.694 469.09 554.985C468.275 556.276 467.181 557.309 465.79 558.083C464.915 558.58 463.722 558.977 462.191 559.255C463.384 559.692 464.239 560.129 464.776 560.546C465.134 560.824 465.651 561.42 466.346 562.313C467.022 563.207 467.48 563.902 467.698 564.379L472.291 574.011L460.879 573.653L455.79 563.505C455.154 562.194 454.558 561.34 454.041 560.923C453.325 560.387 452.51 560.109 451.595 560.089L450.701 560.069L450.283 573.336L440.145 572.998ZM450.92 553.893L455.174 554.032C455.631 554.052 456.526 553.932 457.858 553.674C458.534 553.555 459.09 553.237 459.528 552.701C459.965 552.165 460.203 551.549 460.223 550.834C460.263 549.782 459.945 548.967 459.289 548.372C458.633 547.776 457.38 547.458 455.552 547.398L451.118 547.26L450.92 553.893Z" fill="white"/>
<path d="M475.693 574.13L476.727 541.46L493.565 541.997C496.687 542.096 499.072 542.434 500.702 543.029C502.333 543.625 503.645 544.658 504.599 546.128C505.573 547.617 506.01 549.385 505.951 551.47C505.891 553.277 505.454 554.826 504.639 556.117C503.824 557.408 502.73 558.441 501.339 559.215C500.464 559.712 499.271 560.109 497.74 560.387C498.933 560.824 499.788 561.261 500.325 561.678C500.683 561.956 501.199 562.552 501.895 563.445C502.571 564.339 503.028 565.034 503.247 565.511L507.839 575.143L496.428 574.785L491.339 564.637C490.703 563.326 490.106 562.472 489.589 562.055C488.874 561.519 488.059 561.241 487.144 561.221L486.25 561.201L485.832 574.468L475.693 574.13ZM486.448 555.025L490.703 555.164C491.16 555.184 492.055 555.064 493.387 554.806C494.062 554.687 494.619 554.369 495.056 553.833C495.494 553.297 495.732 552.681 495.752 551.966C495.792 550.914 495.474 550.1 494.818 549.504C494.162 548.908 492.909 548.59 491.08 548.531L486.647 548.392L486.448 555.025Z" fill="white"/>
<path d="M509.565 558.878C509.744 553.535 511.354 549.444 514.416 546.565C517.477 543.685 521.672 542.334 526.98 542.493C532.427 542.672 536.562 544.261 539.425 547.28C542.268 550.298 543.62 554.429 543.461 559.692C543.341 563.505 542.586 566.623 541.234 569.026C539.862 571.429 537.954 573.276 535.469 574.547C532.984 575.838 529.942 576.414 526.304 576.295C522.606 576.176 519.585 575.5 517.199 574.249C514.813 572.998 512.925 571.072 511.494 568.49C510.082 565.888 509.426 562.691 509.565 558.878ZM519.664 559.235C519.565 562.532 520.102 564.915 521.274 566.405C522.447 567.894 524.097 568.649 526.205 568.728C528.372 568.788 530.081 568.152 531.314 566.762C532.546 565.392 533.222 562.87 533.342 559.215C533.441 556.137 532.884 553.873 531.692 552.423C530.499 550.973 528.829 550.199 526.702 550.139C524.654 550.08 523.004 550.735 521.732 552.145C520.459 553.555 519.764 555.919 519.664 559.235Z" fill="white"/>
<path d="M548.51 576.453L549.544 543.784L566.382 544.32C569.503 544.419 571.889 544.757 573.519 545.353C575.149 545.949 576.461 546.981 577.415 548.451C578.389 549.94 578.827 551.708 578.767 553.793C578.707 555.601 578.27 557.15 577.455 558.441C576.64 559.731 575.547 560.764 574.155 561.539C573.28 562.035 572.087 562.432 570.557 562.71C571.749 563.147 572.604 563.584 573.141 564.001C573.499 564.279 574.016 564.875 574.712 565.769C575.388 566.663 575.845 567.358 576.063 567.834L580.656 577.466L569.245 577.109L564.155 566.96C563.519 565.65 562.923 564.796 562.406 564.379C561.69 563.842 560.875 563.564 559.961 563.545L559.066 563.525L558.649 576.791L548.51 576.453ZM559.265 557.328L563.519 557.467C563.976 557.487 564.871 557.368 566.203 557.11C566.879 556.991 567.436 556.673 567.873 556.137C568.31 555.601 568.549 554.985 568.569 554.27C568.608 553.217 568.29 552.403 567.634 551.807C566.978 551.212 565.726 550.894 563.897 550.834L559.464 550.695L559.265 557.328Z" fill="white"/>
<path d="M564.593 631.962C563.878 631.962 563.182 631.684 562.665 631.108L545.648 612.499L527.279 629.261C526.205 630.234 524.555 630.155 523.601 629.102L506.583 610.493L488.214 627.255C487.141 628.228 485.491 628.149 484.537 627.096L467.519 608.487L449.15 625.249C448.633 625.726 447.957 625.964 447.281 625.924C446.586 625.885 445.93 625.587 445.472 625.07L428.455 606.462L410.086 623.223C409.032 624.197 407.362 624.117 406.408 623.065C405.434 621.992 405.514 620.344 406.567 619.39L426.865 600.861C427.918 599.888 429.588 599.967 430.542 601.02L447.56 619.629L465.929 602.867C466.446 602.39 467.122 602.152 467.798 602.192C468.493 602.232 469.149 602.529 469.607 603.046L486.624 621.655L504.993 604.893C506.047 603.92 507.717 603.999 508.671 605.052L525.688 623.66L544.057 606.899C545.111 605.925 546.761 606.005 547.735 607.057L566.522 627.593C567.496 628.665 567.416 630.313 566.363 631.267C565.846 631.724 565.21 631.962 564.593 631.962Z" fill="white"/>
<path d="M249.993 714.401L237.548 708.462L226.455 654.523L232.479 647.89L249.993 714.401Z" fill="#2BA0EE"/>
<path d="M249.991 714.401L266.491 704.768L252.357 660.302L232.477 647.89L249.991 714.401Z" fill="#2BA0EE"/>
<path opacity="0.2" d="M249.991 714.401L266.491 704.768L252.357 660.302L232.477 647.89L249.991 714.401Z" fill="black"/>
<path d="M520.758 724.211C520.281 724.211 519.824 724.211 519.387 724.191C513.9 724.032 509.566 719.465 509.725 713.983C509.884 708.502 514.417 704.192 519.943 704.331C535.251 704.828 567.675 695.434 586.183 677.481C587.336 676.369 588.728 675.554 590.259 675.098C621.649 665.684 633.319 684.69 633.816 685.504L616.699 695.613C616.699 695.613 616.759 695.752 616.938 695.97C616.739 695.712 612.306 689.933 598.151 693.508C574.872 714.698 539.207 724.211 520.758 724.211Z" fill="#263238"/>
<path d="M519.644 737.399L483.442 735.115L480.6 668.445L529.246 670.252L519.644 737.399Z" fill="#2BA0EE"/>
<path d="M519.646 737.398L528.115 728.998L533.364 687.411L529.248 670.252L519.646 737.398Z" fill="#2BA0EE"/>
<path opacity="0.2" d="M519.646 737.398L528.115 728.998L533.364 687.411L529.248 670.252L519.646 737.398Z" fill="black"/>
<path d="M729.417 712.157C728.164 712.157 726.892 711.759 725.819 710.945C705.163 695.256 677.212 667.392 666.497 640.522C666.338 640.125 666.218 639.727 666.159 639.31C660.93 608.269 655.94 542.91 655.722 540.15C655.463 536.873 657.928 534.013 661.209 533.755C664.489 533.517 667.352 535.959 667.61 539.236C667.67 539.911 672.699 605.906 677.808 636.689C688.504 662.825 717.489 689.655 733.035 701.452C735.659 703.438 736.176 707.172 734.168 709.793C732.995 711.342 731.226 712.157 729.417 712.157Z" fill="#263238"/>
<path d="M756.992 715.155C752.38 715.155 747.151 713.07 741.465 708.939C738.802 707.013 738.205 703.279 740.133 700.618C742.062 697.957 745.799 697.361 748.463 699.287C753.393 702.842 756.077 703.239 757.012 703.239C760.312 703.239 762.976 705.9 762.976 709.197C762.956 712.494 760.272 715.155 756.992 715.155Z" fill="#263238"/>
<path d="M743.115 708.78C749.497 689.834 775.659 693.587 784.664 696.387C793.67 699.208 801.781 702.743 806.672 705.92C811.542 709.098 811.622 714.44 805.121 717.479C797.089 721.232 776.971 717.896 776.971 717.896C787.388 722.444 776.951 729.752 758.661 722.583C752.737 720.259 740.869 715.731 743.115 708.78Z" fill="#2BA0EE"/>
<path d="M679.621 548.312C677.256 564.399 663.916 576.275 653.062 574.666C642.207 573.077 641.77 558.699 644.135 542.612C646.501 526.526 650.795 514.808 661.65 516.397C672.484 517.986 681.987 532.206 679.621 548.312Z" fill="#263238"/>
<path d="M417.243 484.085C418.144 484.085 418.874 483.356 418.874 482.456C418.874 481.557 418.144 480.828 417.243 480.828C416.343 480.828 415.613 481.557 415.613 482.456C415.613 483.356 416.343 484.085 417.243 484.085Z" fill="#263238"/>
<path d="M433.803 494.174C433.803 495.068 433.068 495.802 432.173 495.802C431.279 495.802 430.543 495.068 430.543 494.174C430.543 493.28 431.279 492.545 432.173 492.545C433.068 492.545 433.803 493.28 433.803 494.174Z" fill="#263238"/>
<path d="M435.631 686.616C435.631 687.51 434.896 688.245 434.001 688.245C433.107 688.245 432.371 687.51 432.371 686.616C432.371 685.723 433.107 684.988 434.001 684.988C434.896 684.988 435.631 685.723 435.631 686.616Z" fill="#263238"/>
<path d="M450.561 698.354C450.561 699.248 449.826 699.982 448.931 699.982C448.036 699.982 447.301 699.248 447.301 698.354C447.301 697.46 448.036 696.725 448.931 696.725C449.826 696.725 450.561 697.44 450.561 698.354Z" fill="#263238"/>
<path d="M164.028 717.876C159.297 717.876 152.895 715.016 149.456 710.031C149.138 709.575 149.257 708.959 149.714 708.641C150.172 708.323 150.788 708.443 151.106 708.899C154.824 714.242 162.994 717.102 166.632 715.413C167.01 715.235 167.328 715.016 167.567 714.738C164.326 713.249 161.364 710.309 160.549 705.841C160.092 703.319 159.734 699.923 161.821 699.446C164.664 698.811 168.402 705.702 169.833 710.925C170.091 711.898 170.191 712.792 170.091 713.586C171.344 713.924 172.576 714.023 173.65 713.864C174.505 713.745 175.737 713.388 176.373 712.375C173.968 710.746 172.338 707.867 171.801 704.054C171.026 698.632 171.602 697.678 172.219 697.222C172.616 696.924 173.113 696.864 173.59 697.063C175.717 697.976 178.302 705.662 178.779 710.031C178.839 710.508 178.839 710.965 178.779 711.402C179.594 711.719 180.489 711.898 181.463 711.918C183.192 712.017 184.882 711.461 186.254 710.667C185.976 710.488 185.697 710.29 185.459 710.091C183.391 708.323 182.556 705.523 182.914 701.492C183.192 698.374 183.888 696.686 185.141 696.149C185.578 695.951 186.472 695.772 187.546 696.626C189.693 698.334 191.701 703.776 190.985 707.668C190.826 708.482 190.488 709.237 189.991 709.952C193.629 710.587 198.778 709.555 203.192 708.462C203.728 708.323 204.265 708.661 204.404 709.197C204.543 709.733 204.205 710.27 203.669 710.409C198.281 711.739 192.476 712.812 188.381 711.64C186.552 713.09 183.988 713.964 181.423 713.944C180.25 713.924 179.157 713.705 178.163 713.328C177.387 714.659 175.916 715.572 173.948 715.85C172.636 716.049 171.066 715.93 169.495 715.473C169.038 716.228 168.382 716.824 167.487 717.241C166.493 717.658 165.32 717.876 164.028 717.876ZM162.318 701.432C162.199 701.73 162 702.743 162.477 705.483C163.133 709.138 165.499 711.561 168.123 712.852C168.103 712.434 168.024 711.958 167.885 711.441C166.334 705.781 163.352 701.869 162.318 701.432ZM173.391 699.704C173.372 700.459 173.451 701.71 173.749 703.795C174.147 706.635 175.201 708.8 176.771 710.19C176.294 706.198 174.525 701.591 173.391 699.704ZM185.896 697.976C185.896 697.976 185.141 698.354 184.862 701.67C184.564 705.007 185.18 707.271 186.711 708.582C187.069 708.88 187.466 709.138 187.904 709.336C188.46 708.721 188.858 708.026 188.977 707.291C189.514 704.411 188.142 700.201 186.592 698.493C186.214 698.056 185.956 697.976 185.896 697.976Z" fill="#263238"/>
<path d="M454.994 732.89L460.381 723.556L454.994 714.222H449.229L452.489 723.556L449.229 732.89H454.994Z" fill="#263238"/>
<path d="M449.606 728.422C446.922 728.422 444.735 726.237 444.735 723.556C444.735 720.875 446.922 718.71 449.606 718.71L440.441 716.883L438.016 724.271L442.111 730.507L449.606 728.422Z" fill="#263238"/>
<path d="M450.401 714.222H439.606L434.219 723.556L439.606 732.89H450.401L455.789 723.556L450.401 714.222ZM445.014 728.422C442.33 728.422 440.143 726.237 440.143 723.556C440.143 720.875 442.33 718.71 445.014 718.71C447.697 718.71 449.864 720.875 449.864 723.556C449.864 726.237 447.697 728.422 445.014 728.422Z" fill="#2BA0EE"/>
<path d="M830.762 713.606L826.766 706.655L830.762 699.724H835.036L832.63 706.655L835.036 713.606H830.762Z" fill="#2BA0EE"/>
<path d="M834.756 710.269C836.744 710.269 838.374 708.641 838.374 706.655C838.374 704.669 836.744 703.06 834.756 703.06L841.555 701.71L843.364 707.191L840.322 711.819L834.756 710.269Z" fill="#2BA0EE"/>
<path d="M834.181 699.724H842.193L846.189 706.655L842.193 713.586H834.181L830.186 706.655L834.181 699.724ZM838.177 710.269C840.165 710.269 841.795 708.641 841.795 706.655C841.795 704.669 840.165 703.06 838.177 703.06C836.189 703.06 834.579 704.669 834.579 706.655C834.579 708.661 836.189 710.269 838.177 710.269Z" fill="#263238"/>
<path d="M681.788 722.801H690.773C693.119 722.801 695.028 720.895 695.028 718.551C695.028 716.208 693.119 714.301 690.773 714.301H681.788C679.442 714.301 677.533 716.208 677.533 718.551C677.533 720.895 679.442 722.801 681.788 722.801Z" fill="#263238"/>
<path d="M667.433 714.778C669.659 710.071 675.027 707.946 679.44 710.031C683.853 712.117 685.643 717.598 683.416 722.305C681.189 727.012 675.822 729.137 671.409 727.051C666.995 724.986 665.206 719.485 667.433 714.778Z" fill="#2BA0EE"/>
<path d="M669.955 727.012L672.418 728.173L680.982 710.03L678.518 708.869L669.955 727.012Z" fill="#263238"/>
</svg>
