<svg width="238" height="44" viewBox="0 0 238 44" fill="none" xmlns="http://www.w3.org/2000/svg">
<g clip-path="url(#clip0_73_2713)">
<path d="M22 44C34.1503 44 44 34.1503 44 22C44 9.84974 34.1503 0 22 0C9.84974 0 0 9.84974 0 22C0 34.1503 9.84974 44 22 44Z" fill="#2BA0EE"/>
<path d="M56.3157 34.0001V12.5081H48.9717V8.80008H68.3037V12.5081H60.9237V34.0001H56.3157ZM71.6092 34.0001V8.08008H76.2172V18.8801C76.8172 17.8961 77.6212 17.1281 78.6292 16.5761C79.6612 16.0001 80.8372 15.7121 82.1572 15.7121C84.3652 15.7121 86.0692 16.4081 87.2692 17.8001C88.4932 19.1921 89.1052 21.2321 89.1052 23.9201V34.0001H84.5332V24.3521C84.5332 22.8161 84.2212 21.6401 83.5972 20.8241C82.9972 20.0081 82.0372 19.6001 80.7172 19.6001C79.4212 19.6001 78.3412 20.0561 77.4772 20.9681C76.6372 21.8801 76.2172 23.1521 76.2172 24.7841V34.0001H71.6092ZM102.188 34.4321C100.388 34.4321 98.7916 34.0481 97.3996 33.2801C96.0076 32.5121 94.9156 31.4321 94.1236 30.0401C93.3316 28.6481 92.9356 27.0401 92.9356 25.2161C92.9356 23.3681 93.3196 21.7241 94.0876 20.2841C94.8796 18.8441 95.9596 17.7281 97.3276 16.9361C98.7196 16.1201 100.352 15.7121 102.224 15.7121C103.976 15.7121 105.524 16.0961 106.868 16.8641C108.212 17.6321 109.256 18.6881 110 20.0321C110.768 21.3521 111.152 22.8281 111.152 24.4601C111.152 24.7241 111.14 25.0001 111.116 25.2881C111.116 25.5761 111.104 25.8761 111.08 26.1881H97.5076C97.6036 27.5801 98.0836 28.6721 98.9476 29.4641C99.8356 30.2561 100.904 30.6521 102.152 30.6521C103.088 30.6521 103.868 30.4481 104.492 30.0401C105.14 29.6081 105.62 29.0561 105.932 28.3841H110.612C110.276 29.5121 109.712 30.5441 108.92 31.4801C108.152 32.3921 107.192 33.1121 106.04 33.6401C104.912 34.1681 103.628 34.4321 102.188 34.4321ZM102.224 19.4561C101.096 19.4561 100.1 19.7801 99.2356 20.4281C98.3716 21.0521 97.8196 22.0121 97.5796 23.3081H106.472C106.4 22.1321 105.968 21.1961 105.176 20.5001C104.384 19.8041 103.4 19.4561 102.224 19.4561ZM115.028 34.0001V16.1441H119.096L119.492 18.5561C120.068 17.6921 120.824 17.0081 121.76 16.5041C122.72 15.9761 123.824 15.7121 125.072 15.7121C127.832 15.7121 129.788 16.7801 130.94 18.9161C131.588 17.9321 132.452 17.1521 133.532 16.5761C134.636 16.0001 135.836 15.7121 137.132 15.7121C139.46 15.7121 141.248 16.4081 142.496 17.8001C143.744 19.1921 144.368 21.2321 144.368 23.9201V34.0001H139.76V24.3521C139.76 22.8161 139.46 21.6401 138.86 20.8241C138.284 20.0081 137.384 19.6001 136.16 19.6001C134.912 19.6001 133.904 20.0561 133.136 20.9681C132.392 21.8801 132.02 23.1521 132.02 24.7841V34.0001H127.412V24.3521C127.412 22.8161 127.112 21.6401 126.512 20.8241C125.912 20.0081 124.988 19.6001 123.74 19.6001C122.516 19.6001 121.52 20.0561 120.752 20.9681C120.008 21.8801 119.636 23.1521 119.636 24.7841V34.0001H115.028ZM157.418 34.4321C155.618 34.4321 154.022 34.0481 152.63 33.2801C151.238 32.5121 150.146 31.4321 149.354 30.0401C148.562 28.6481 148.166 27.0401 148.166 25.2161C148.166 23.3681 148.55 21.7241 149.318 20.2841C150.11 18.8441 151.19 17.7281 152.558 16.9361C153.95 16.1201 155.582 15.7121 157.454 15.7121C159.206 15.7121 160.754 16.0961 162.098 16.8641C163.442 17.6321 164.486 18.6881 165.23 20.0321C165.998 21.3521 166.382 22.8281 166.382 24.4601C166.382 24.7241 166.37 25.0001 166.346 25.2881C166.346 25.5761 166.334 25.8761 166.31 26.1881H152.738C152.834 27.5801 153.314 28.6721 154.178 29.4641C155.066 30.2561 156.134 30.6521 157.382 30.6521C158.318 30.6521 159.098 30.4481 159.722 30.0401C160.37 29.6081 160.85 29.0561 161.162 28.3841H165.842C165.506 29.5121 164.942 30.5441 164.15 31.4801C163.382 32.3921 162.422 33.1121 161.27 33.6401C160.142 34.1681 158.858 34.4321 157.418 34.4321ZM157.454 19.4561C156.326 19.4561 155.33 19.7801 154.466 20.4281C153.602 21.0521 153.05 22.0121 152.81 23.3081H161.702C161.63 22.1321 161.198 21.1961 160.406 20.5001C159.614 19.8041 158.63 19.4561 157.454 19.4561Z" fill="#010319"/>
<path d="M170.402 34.0001V8.08008H173.426V19.2041C174.026 18.1001 174.878 17.2481 175.982 16.6481C177.086 16.0241 178.286 15.7121 179.582 15.7121C181.646 15.7121 183.302 16.3601 184.55 17.6561C185.798 18.9281 186.422 20.8961 186.422 23.5601V34.0001H183.434V23.8841C183.434 20.1641 181.934 18.3041 178.934 18.3041C177.374 18.3041 176.066 18.8681 175.01 19.9961C173.954 21.1001 173.426 22.6841 173.426 24.7481V34.0001H170.402ZM199.14 34.4321C197.46 34.4321 195.948 34.0481 194.604 33.2801C193.26 32.5121 192.192 31.4321 191.4 30.0401C190.632 28.6241 190.248 26.9681 190.248 25.0721C190.248 23.1761 190.644 21.5321 191.436 20.1401C192.228 18.7241 193.296 17.6321 194.64 16.8641C196.008 16.0961 197.532 15.7121 199.212 15.7121C200.892 15.7121 202.404 16.0961 203.748 16.8641C205.092 17.6321 206.148 18.7241 206.916 20.1401C207.708 21.5321 208.104 23.1761 208.104 25.0721C208.104 26.9681 207.708 28.6241 206.916 30.0401C206.124 31.4321 205.044 32.5121 203.676 33.2801C202.332 34.0481 200.82 34.4321 199.14 34.4321ZM199.14 31.8401C200.172 31.8401 201.132 31.5881 202.02 31.0841C202.908 30.5801 203.628 29.8241 204.18 28.8161C204.732 27.8081 205.008 26.5601 205.008 25.0721C205.008 23.5841 204.732 22.3361 204.18 21.3281C203.652 20.3201 202.944 19.5641 202.056 19.0601C201.168 18.5561 200.22 18.3041 199.212 18.3041C198.18 18.3041 197.22 18.5561 196.332 19.0601C195.444 19.5641 194.724 20.3201 194.172 21.3281C193.62 22.3361 193.344 23.5841 193.344 25.0721C193.344 26.5601 193.62 27.8081 194.172 28.8161C194.724 29.8241 195.432 30.5801 196.296 31.0841C197.184 31.5881 198.132 31.8401 199.14 31.8401ZM212.308 34.0001V8.08008H215.332V34.0001H212.308ZM222.233 41.9201L226.661 32.2721H225.617L218.525 16.1441H221.801L227.705 30.0401L233.969 16.1441H237.101L225.401 41.9201H222.233Z" fill="#2BA0EE"/>
<path d="M19.7934 28.6724L17.9238 30.6248L19.7934 32.5771L21.6631 30.6248L19.7934 28.6724Z" fill="white"/>
<path d="M24.1997 28.6724L22.3301 30.6248L24.1997 32.5771L26.0693 30.6248L24.1997 28.6724Z" fill="white"/>
<path d="M21.9967 30.9739L20.127 32.9263L21.9967 34.8787L23.8663 32.9263L21.9967 30.9739Z" fill="white"/>
<path d="M9 10.1501V34.9998L13.4068 30.9733V24.4157H30.5932V30.9733L35 34.9998V10.1501L30.5932 14.752V19.8139H13.4068V14.752L9 10.1501Z" fill="white"/>
<g filter="url(#filter0_d_73_2713)">
<path d="M24.2037 19.8147H19.7969V24.4165H24.2037V19.8147Z" fill="white"/>
</g>
<path d="M33.8982 9H10.1016L14.5084 13.6018H19.7965V27.9823L21.9999 30.2832L24.2033 27.9823V13.6018H29.4914L33.8982 9Z" fill="white"/>
</g>
<defs>
<filter id="filter0_d_73_2713" x="15.7969" y="19.8147" width="12.4072" height="12.6018" filterUnits="userSpaceOnUse" color-interpolation-filters="sRGB">
<feFlood flood-opacity="0" result="BackgroundImageFix"/>
<feColorMatrix in="SourceAlpha" type="matrix" values="0 0 0 0 0 0 0 0 0 0 0 0 0 0 0 0 0 0 127 0" result="hardAlpha"/>
<feOffset dy="4"/>
<feGaussianBlur stdDeviation="2"/>
<feComposite in2="hardAlpha" operator="out"/>
<feColorMatrix type="matrix" values="0 0 0 0 0 0 0 0 0 0 0 0 0 0 0 0 0 0 0.25 0"/>
<feBlend mode="normal" in2="BackgroundImageFix" result="effect1_dropShadow_73_2713"/>
<feBlend mode="normal" in="SourceGraphic" in2="effect1_dropShadow_73_2713" result="shape"/>
</filter>
<clipPath id="clip0_73_2713">
<rect width="238" height="44" fill="white"/>
</clipPath>
</defs>
</svg>
