<svg width="216" height="40" viewBox="0 0 216 40" fill="none" xmlns="http://www.w3.org/2000/svg">
<g clip-path="url(#clip0_45_13738)">
<path d="M19.9664 40C30.9935 40 39.9328 31.0457 39.9328 20C39.9328 8.9543 30.9935 0 19.9664 0C8.93926 0 0 8.9543 0 20C0 31.0457 8.93926 40 19.9664 40Z" fill="#2BA0EE"/>
<path d="M51.1103 30.9091V11.3709H44.4452V8H61.9902V11.3709H55.2924V30.9091H51.1103ZM64.9901 30.9091V7.34546H69.1722V17.1636C69.7167 16.2691 70.4464 15.5709 71.3612 15.0691C72.2978 14.5455 73.3651 14.2836 74.5631 14.2836C76.567 14.2836 78.1135 14.9164 79.2026 16.1818C80.3134 17.4473 80.8689 19.3018 80.8689 21.7455V30.9091H76.7195V22.1382C76.7195 20.7418 76.4363 19.6727 75.87 18.9309C75.3255 18.1891 74.4542 17.8182 73.2562 17.8182C72.08 17.8182 71.0999 18.2327 70.3157 19.0618C69.5534 19.8909 69.1722 21.0473 69.1722 22.5309V30.9091H64.9901ZM92.7421 31.3018C91.1085 31.3018 89.6599 30.9527 88.3966 30.2545C87.1332 29.5564 86.1422 28.5746 85.4234 27.3091C84.7046 26.0436 84.3452 24.5818 84.3452 22.9236C84.3452 21.2436 84.6937 19.7491 85.3907 18.44C86.1095 17.1309 87.0897 16.1164 88.3312 15.3964C89.5945 14.6546 91.0758 14.2836 92.7747 14.2836C94.3648 14.2836 95.7697 14.6327 96.9895 15.3309C98.2092 16.0291 99.1567 16.9891 99.8319 18.2109C100.529 19.4109 100.877 20.7527 100.877 22.2364C100.877 22.4764 100.867 22.7273 100.845 22.9891C100.845 23.2509 100.834 23.5236 100.812 23.8073H88.4946C88.5817 25.0727 89.0173 26.0655 89.8015 26.7855C90.6074 27.5055 91.5768 27.8655 92.7094 27.8655C93.5589 27.8655 94.2668 27.68 94.8331 27.3091C95.4212 26.9164 95.8568 26.4146 96.14 25.8036H100.387C100.082 26.8291 99.5706 27.7673 98.8518 28.6182C98.1548 29.4473 97.2835 30.1018 96.238 30.5818C95.2143 31.0618 94.049 31.3018 92.7421 31.3018ZM92.7747 17.6873C91.751 17.6873 90.8471 17.9818 90.0628 18.5709C89.2787 19.1382 88.7777 20.0109 88.5599 21.1891H96.6301C96.5647 20.12 96.1727 19.2691 95.4539 18.6364C94.7351 18.0036 93.842 17.6873 92.7747 17.6873ZM104.395 30.9091V14.6764H108.087L108.447 16.8691C108.969 16.0836 109.655 15.4618 110.505 15.0036C111.376 14.5236 112.378 14.2836 113.511 14.2836C116.016 14.2836 117.791 15.2546 118.836 17.1964C119.424 16.3018 120.209 15.5927 121.189 15.0691C122.191 14.5455 123.28 14.2836 124.456 14.2836C126.569 14.2836 128.191 14.9164 129.324 16.1818C130.457 17.4473 131.023 19.3018 131.023 21.7455V30.9091H126.841V22.1382C126.841 20.7418 126.569 19.6727 126.024 18.9309C125.501 18.1891 124.685 17.8182 123.574 17.8182C122.441 17.8182 121.526 18.2327 120.829 19.0618C120.154 19.8909 119.816 21.0473 119.816 22.5309V30.9091H115.634V22.1382C115.634 20.7418 115.362 19.6727 114.818 18.9309C114.273 18.1891 113.435 17.8182 112.302 17.8182C111.191 17.8182 110.287 18.2327 109.59 19.0618C108.915 19.8909 108.577 21.0473 108.577 22.5309V30.9091H104.395ZM142.867 31.3018C141.233 31.3018 139.785 30.9527 138.521 30.2545C137.258 29.5564 136.267 28.5746 135.548 27.3091C134.829 26.0436 134.47 24.5818 134.47 22.9236C134.47 21.2436 134.818 19.7491 135.516 18.44C136.234 17.1309 137.214 16.1164 138.456 15.3964C139.719 14.6546 141.2 14.2836 142.899 14.2836C144.489 14.2836 145.894 14.6327 147.114 15.3309C148.334 16.0291 149.281 16.9891 149.957 18.2109C150.654 19.4109 151.002 20.7527 151.002 22.2364C151.002 22.4764 150.991 22.7273 150.969 22.9891C150.969 23.2509 150.959 23.5236 150.937 23.8073H138.619C138.707 25.0727 139.142 26.0655 139.926 26.7855C140.732 27.5055 141.701 27.8655 142.834 27.8655C143.684 27.8655 144.391 27.68 144.958 27.3091C145.546 26.9164 145.982 26.4146 146.265 25.8036H150.512C150.207 26.8291 149.695 27.7673 148.976 28.6182C148.279 29.4473 147.408 30.1018 146.363 30.5818C145.339 31.0618 144.174 31.3018 142.867 31.3018ZM142.899 17.6873C141.876 17.6873 140.972 17.9818 140.188 18.5709C139.404 19.1382 138.903 20.0109 138.685 21.1891H146.755C146.689 20.12 146.297 19.2691 145.579 18.6364C144.86 18.0036 143.967 17.6873 142.899 17.6873Z" fill="#010319"/>
<path d="M154.651 30.9091V7.34546H157.395V17.4582C157.94 16.4546 158.713 15.68 159.715 15.1346C160.717 14.5673 161.806 14.2836 162.982 14.2836C164.855 14.2836 166.358 14.8727 167.491 16.0509C168.623 17.2073 169.19 18.9964 169.19 21.4182V30.9091H166.478V21.7127C166.478 18.3309 165.117 16.64 162.394 16.64C160.978 16.64 159.791 17.1527 158.833 18.1782C157.874 19.1818 157.395 20.6218 157.395 22.4982V30.9091H154.651ZM180.732 31.3018C179.207 31.3018 177.835 30.9527 176.615 30.2545C175.396 29.5564 174.426 28.5746 173.708 27.3091C173.011 26.0218 172.662 24.5164 172.662 22.7927C172.662 21.0691 173.021 19.5745 173.74 18.3091C174.459 17.0218 175.428 16.0291 176.648 15.3309C177.89 14.6327 179.273 14.2836 180.797 14.2836C182.322 14.2836 183.694 14.6327 184.914 15.3309C186.134 16.0291 187.092 17.0218 187.789 18.3091C188.508 19.5745 188.868 21.0691 188.868 22.7927C188.868 24.5164 188.508 26.0218 187.789 27.3091C187.071 28.5746 186.09 29.5564 184.849 30.2545C183.629 30.9527 182.257 31.3018 180.732 31.3018ZM180.732 28.9455C181.669 28.9455 182.54 28.7164 183.346 28.2582C184.152 27.8 184.805 27.1127 185.306 26.1964C185.807 25.28 186.058 24.1455 186.058 22.7927C186.058 21.44 185.807 20.3055 185.306 19.3891C184.827 18.4727 184.184 17.7855 183.379 17.3273C182.573 16.8691 181.712 16.64 180.797 16.64C179.861 16.64 178.99 16.8691 178.184 17.3273C177.378 17.7855 176.724 18.4727 176.223 19.3891C175.722 20.3055 175.472 21.44 175.472 22.7927C175.472 24.1455 175.722 25.28 176.223 26.1964C176.724 27.1127 177.367 27.8 178.151 28.2582C178.957 28.7164 179.817 28.9455 180.732 28.9455ZM192.683 30.9091V7.34546H195.427V30.9091H192.683ZM201.69 38.1091L205.709 29.3382H204.762L198.325 14.6764H201.298L206.657 27.3091L212.342 14.6764H215.184L204.566 38.1091H201.69Z" fill="#2BA0EE"/>
<path d="M17.9639 26.0659L16.2671 27.8408L17.9639 29.6156L19.6607 27.8408L17.9639 26.0659Z" fill="white"/>
<path d="M21.9631 26.0659L20.2664 27.8408L21.9631 29.6156L23.6599 27.8408L21.9631 26.0659Z" fill="white"/>
<path d="M19.9634 28.1582L18.2665 29.9331L19.9634 31.708L21.6602 29.9331L19.9634 28.1582Z" fill="white"/>
<path d="M8.16809 9.22729V31.8179L12.1675 28.1575V22.196H27.7653V28.1575L31.7647 31.8179V9.22729L27.7653 13.4108V18.0126H12.1675V13.4108L8.16809 9.22729Z" fill="white"/>
<g filter="url(#filter0_d_45_13738)">
<path d="M21.9662 18.0134H17.9667V22.1969H21.9662V18.0134Z" fill="white"/>
</g>
<path d="M30.7648 8.18188H9.16785L13.1673 12.3653H17.9666V25.4385L19.9663 27.5302L21.966 25.4385V12.3653H26.7653L30.7648 8.18188Z" fill="white"/>
</g>
<defs>
<filter id="filter0_d_45_13738" x="13.9667" y="18.0134" width="11.9995" height="12.1833" filterUnits="userSpaceOnUse" color-interpolation-filters="sRGB">
<feFlood flood-opacity="0" result="BackgroundImageFix"/>
<feColorMatrix in="SourceAlpha" type="matrix" values="0 0 0 0 0 0 0 0 0 0 0 0 0 0 0 0 0 0 127 0" result="hardAlpha"/>
<feOffset dy="4"/>
<feGaussianBlur stdDeviation="2"/>
<feComposite in2="hardAlpha" operator="out"/>
<feColorMatrix type="matrix" values="0 0 0 0 0 0 0 0 0 0 0 0 0 0 0 0 0 0 0.25 0"/>
<feBlend mode="normal" in2="BackgroundImageFix" result="effect1_dropShadow_45_13738"/>
<feBlend mode="normal" in="SourceGraphic" in2="effect1_dropShadow_45_13738" result="shape"/>
</filter>
<clipPath id="clip0_45_13738">
<rect width="216" height="40" fill="white"/>
</clipPath>
</defs>
</svg>
